<svg xmlns="http://www.w3.org/2000/svg" viewBox="0 0 512 512" width="512" height="512">
  <defs>
    <linearGradient id="blueGradient" x1="0%" y1="0%" x2="100%" y2="100%">
      <stop offset="0%" style="stop-color:#2196F3;stop-opacity:1" />
      <stop offset="100%" style="stop-color:#1976D2;stop-opacity:1" />
    </linearGradient>
    <linearGradient id="scanLineGradient" x1="0%" y1="0%" x2="0%" y2="100%">
      <stop offset="0%" style="stop-color:#FFFFFF;stop-opacity:0" />
      <stop offset="50%" style="stop-color:#FFFFFF;stop-opacity:0.9" />
      <stop offset="100%" style="stop-color:#FFFFFF;stop-opacity:0" />
    </linearGradient>
  </defs>
  
  <!-- Background -->
  <rect width="512" height="512" rx="80" fill="url(#blueGradient)"/>
  
  <!-- QR Code Base -->
  <rect x="140" y="140" width="232" height="232" rx="16" fill="#0D47A1"/>
  
  <!-- QR Code Pattern -->
  <!-- Position Markers -->
  <rect x="160" y="160" width="52" height="52" fill="#E3F2FD" rx="8"/>
  <rect x="300" y="160" width="52" height="52" fill="#E3F2FD" rx="8"/>
  <rect x="160" y="300" width="52" height="52" fill="#E3F2FD" rx="8"/>
  
  <!-- Inner Position Markers -->
  <rect x="172" y="172" width="28" height="28" fill="#0D47A1" rx="4"/>
  <rect x="312" y="172" width="28" height="28" fill="#0D47A1" rx="4"/>
  <rect x="172" y="312" width="28" height="28" fill="#0D47A1" rx="4"/>
  
  <!-- QR Code Dots -->
  <rect x="232" y="160" width="16" height="16" fill="#E3F2FD" rx="2"/>
  <rect x="260" y="160" width="16" height="16" fill="#E3F2FD" rx="2"/>
  <rect x="288" y="160" width="8" height="8" fill="#E3F2FD" rx="1"/>
  
  <rect x="160" y="232" width="16" height="16" fill="#E3F2FD" rx="2"/>
  <rect x="200" y="232" width="8" height="8" fill="#E3F2FD" rx="1"/>
  <rect x="220" y="232" width="16" height="16" fill="#E3F2FD" rx="2"/>
  <rect x="248" y="232" width="8" height="8" fill="#E3F2FD" rx="1"/>
  <rect x="268" y="232" width="16" height="16" fill="#E3F2FD" rx="2"/>
  <rect x="296" y="232" width="8" height="8" fill="#E3F2FD" rx="1"/>
  <rect x="320" y="232" width="16" height="16" fill="#E3F2FD" rx="2"/>
  
  <rect x="232" y="260" width="8" height="8" fill="#E3F2FD" rx="1"/>
  <rect x="252" y="260" width="16" height="16" fill="#E3F2FD" rx="2"/>
  <rect x="280" y="260" width="8" height="8" fill="#E3F2FD" rx="1"/>
  <rect x="300" y="260" width="16" height="16" fill="#E3F2FD" rx="2"/>
  
  <rect x="160" y="288" width="16" height="16" fill="#E3F2FD" rx="2"/>
  <rect x="188" y="288" width="8" height="8" fill="#E3F2FD" rx="1"/>
  <rect x="208" y="288" width="16" height="16" fill="#E3F2FD" rx="2"/>
  <rect x="236" y="288" width="8" height="8" fill="#E3F2FD" rx="1"/>
  <rect x="256" y="288" width="16" height="16" fill="#E3F2FD" rx="2"/>
  <rect x="284" y="288" width="8" height="8" fill="#E3F2FD" rx="1"/>
  <rect x="304" y="288" width="16" height="16" fill="#E3F2FD" rx="2"/>
  
  <rect x="232" y="320" width="16" height="16" fill="#E3F2FD" rx="2"/>
  <rect x="260" y="320" width="16" height="16" fill="#E3F2FD" rx="2"/>
  <rect x="288" y="320" width="8" height="8" fill="#E3F2FD" rx="1"/>
  
  <rect x="320" y="288" width="16" height="16" fill="#E3F2FD" rx="2"/>
  <rect x="340" y="288" width="8" height="8" fill="#E3F2FD" rx="1"/>
  
  <!-- Scanning Line -->
  <rect x="140" y="256" width="232" height="4" fill="url(#scanLineGradient)">
    <animate attributeName="y" from="140" to="372" dur="1.8s" repeatCount="indefinite"/>
  </rect>
  
  <!-- Scanner Corners -->
  <path d="M140 140 L180 140 L180 160 M140 140 L140 180 L160 180" 
        fill="none" stroke="#BBDEFB" stroke-width="6" stroke-linecap="round"/>
  <path d="M372 140 L332 140 L332 160 M372 140 L372 180 L352 180" 
        fill="none" stroke="#BBDEFB" stroke-width="6" stroke-linecap="round"/>
  <path d="M140 372 L180 372 L180 352 M140 372 L140 332 L160 332" 
        fill="none" stroke="#BBDEFB" stroke-width="6" stroke-linecap="round"/>
  <path d="M372 372 L332 372 L332 352 M372 372 L372 332 L352 332" 
        fill="none" stroke="#BBDEFB" stroke-width="6" stroke-linecap="round"/>
</svg>